<svg xmlns="http://www.w3.org/2000/svg" xmlns:xlink="http://www.w3.org/1999/xlink" width="260" height="162" viewBox="0 0 260 162">
  <defs>
    <style>
      .cls-1 {
        stroke: #336;
        stroke-linecap: round;
        stroke-linejoin: round;
        stroke-width: 0.974px;
        fill: url(#linear-gradient);
      }

      .cls-1, .cls-2, .cls-3 {
        fill-rule: evenodd;
      }

      .cls-2 {
        fill: #336;
      }

      .cls-3 {
        fill: #c93;
      }
    </style>
    <linearGradient id="linear-gradient" x1="67.935" y1="61.75" x2="22.065" y2="14.25" gradientUnits="userSpaceOnUse">
      <stop offset="0" stop-color="#c93"/>
      <stop offset="0.184" stop-color="#c93"/>
      <stop offset="0.5" stop-color="#ff9"/>
      <stop offset="0.777" stop-color="#c93"/>
      <stop offset="1" stop-color="#c93"/>
    </linearGradient>
  </defs>
  <path id="Прямоугольник_скругл._углы_1" data-name="Прямоугольник, скругл. углы 1" class="cls-1" d="M24.552,14.25h40.9A4.052,4.052,0,0,1,69.5,18.3V57.7a4.052,4.052,0,0,1-4.052,4.052h-40.9A4.052,4.052,0,0,1,20.5,57.7V18.3A4.052,4.052,0,0,1,24.552,14.25Z"/>
  <path id="Фигура_1" data-name="Фигура 1" class="cls-2" d="M43.162,19.676l4.827,3.566c0.217,7.518-1.405,12.977-5.62,16.374-0.74.6-3.49,2.777-4.467,3.057,0.048-.1,2.113-1.431,2.161-1.528,3.588-2.1,6.327-9.837,5.043-15.865C44.659,23.171,43.644,21.446,43.162,19.676Zm-4.107.073,3.6,1.965a22.147,22.147,0,0,1,1.369,9.752c-0.982,5.93-3.376,8.869-5.692,10.188a8.125,8.125,0,0,1-6.556.728A5.935,5.935,0,0,1,28.1,39.252c-1.422-3.3.681-7.1,3.458-7.423,5.337-.627,7.859,6.554,2.666,8.078a3.584,3.584,0,0,1-2.738-.655A3.016,3.016,0,0,1,30.41,37.36a2.67,2.67,0,0,1,1.009-2.474A2.207,2.207,0,0,1,34.86,36.9a2,2,0,0,1-.7,1.261,1.266,1.266,0,0,1-.792.291,1.019,1.019,0,0,1-1.009-.509,1.325,1.325,0,0,1-.144-1.164,1.253,1.253,0,0,1,1.225-.655A1.1,1.1,0,0,1,34.3,37a0.157,0.157,0,0,0,.072-0.073A1.749,1.749,0,0,0,31.418,35.4c-1.534,1.622-.018,3.6,1.513,4a3.14,3.14,0,0,0,3.675-3.784,4.592,4.592,0,0,0-3.458-3.275c-4.7-.992-6.356,5.757-3.53,8.078,6.223,5.112,13.445-1.7,12.969-9.752a22.254,22.254,0,0,0-1.729-7.423Zm13.689,5.385c3.812-.052,7.473,4.41,8.862,6.986,0.578,1.071,1.524,3.088.576,4.439-1.722,2.456-4.219-.429-6.7,0-2.409.417-7.245,2.425-8.43,4h0.216c2.676-.976,4.4-2.772,7.493-3.275,2.251-.366,5.1.369,5.476,1.965,0.4,1.735-1.462,2.16-2.522,2.547-0.52.19-7.193,1.385-10.807,1.965l-0.072-.146,0.216-.291c2.441-.633,10.924-1.951,12.032-3.348V39.762c-2.931-3.187-9.972.448-12.9,1.747l-2.738,1.31-1.009-.437,0.072-.146c3.43-.8,8.132-7.181,9.15-10.552C52.442,29.108,50.123,26.677,52.745,25.134Zm-3.6,1.456,1.729,3.566c0.235,1.207-.953,3.035-1.369,3.857-1.686,3.336-5.591,7.374-9.438,8.442,0.048-.1,1.033-0.631,1.081-0.728C45.949,39.784,48.984,33.251,49.142,26.59Zm14.77,19.032c-8.5,0-17.7.229-26.01,0.4-3.7.242-6.893,0.412-10.591,0.655l-1.873-.946,0.072-.146,1.441-.728,10.879,0.582H55.267c2.7,0,6.13-.029,8.646.1v0.081Z"/>
  <path id="ЮСКО" class="cls-2" d="M35.875,48.849a4.648,4.648,0,0,0-3.079-.034,3.771,3.771,0,0,0-2.13,1.808,3.754,3.754,0,0,0-.419,1.458H28.533v-2.31a0.724,0.724,0,0,1,.07-0.319,0.421,0.421,0,0,1,.278-0.209,3.4,3.4,0,0,1,.37-0.078,3.188,3.188,0,0,1,.419-0.047V48.747H26.078v0.371a2.686,2.686,0,0,1,.407.063,2.5,2.5,0,0,1,.4.12,0.528,0.528,0,0,1,.275.217,0.6,0.6,0,0,1,.08.306v5.351a0.586,0.586,0,0,1-.086.332,0.508,0.508,0,0,1-.269.191,1.471,1.471,0,0,1-.383.063l-0.425.031v0.371h3.593V55.791a3.182,3.182,0,0,1-.419-0.052,1.756,1.756,0,0,1-.37-0.094,0.577,0.577,0,0,1-.278-0.219,0.621,0.621,0,0,1-.07-0.308V52.546h1.7a4.034,4.034,0,0,0,.315,1.531,3.623,3.623,0,0,0,.835,1.2,3.894,3.894,0,0,0,1.273.784,4.72,4.72,0,0,0,3.186.011,3.957,3.957,0,0,0,1.295-.773,3.612,3.612,0,0,0,.891-1.236,3.891,3.891,0,0,0,.321-1.6,3.931,3.931,0,0,0-.321-1.612,3.622,3.622,0,0,0-.872-1.226A3.887,3.887,0,0,0,35.875,48.849Zm-0.441,6.757a2.729,2.729,0,0,1-2.341.011,2.244,2.244,0,0,1-.808-0.719,3.248,3.248,0,0,1-.474-1.077,5.66,5.66,0,0,1-.15-1.359,5.741,5.741,0,0,1,.147-1.322,3.272,3.272,0,0,1,.428-1.05,2.26,2.26,0,0,1,2.026-1.056,2.514,2.514,0,0,1,1.136.246,2.212,2.212,0,0,1,.817.7,3.155,3.155,0,0,1,.49,1.09,5.623,5.623,0,0,1,.165,1.4,5.561,5.561,0,0,1-.153,1.346,3.248,3.248,0,0,1-.471,1.074A2.215,2.215,0,0,1,35.434,55.606Zm9.9,0.261a3.358,3.358,0,0,0,1.394-1.576L46.265,54.1a2.754,2.754,0,0,1-.379.638,2.939,2.939,0,0,1-.538.523,2.579,2.579,0,0,1-.721.353,2.972,2.972,0,0,1-.911.133,2.779,2.779,0,0,1-1.2-.251,2.812,2.812,0,0,1-.926-0.7,3.208,3.208,0,0,1-.6-1.043,3.873,3.873,0,0,1-.211-1.3,4.936,4.936,0,0,1,.2-1.459,3.067,3.067,0,0,1,.556-1.078,2.437,2.437,0,0,1,.883-0.664,2.707,2.707,0,0,1,1.1-.225,2.042,2.042,0,0,1,.923.2,2.126,2.126,0,0,1,.7.556,3.1,3.1,0,0,1,.459.766,5.579,5.579,0,0,1,.294.839h0.5l-0.055-2.644h-0.49L45.6,49.1a4.72,4.72,0,0,0-.991-0.382,4.89,4.89,0,0,0-2.782.147,3.909,3.909,0,0,0-1.315.8,3.727,3.727,0,0,0-.881,1.247,3.972,3.972,0,0,0-.318,1.613,3.8,3.8,0,0,0,.324,1.6,3.625,3.625,0,0,0,.868,1.2,3.885,3.885,0,0,0,1.263.753A4.589,4.589,0,0,0,45.33,55.867Zm10.4-.076q-0.135-.01-0.318-0.029t-0.343-.039a0.872,0.872,0,0,1-.361-0.144,1.3,1.3,0,0,1-.367-0.469Q54.21,54.854,54,54.485T53.628,53.8a2.933,2.933,0,0,0-.756-0.914,2.874,2.874,0,0,0-1.129-.515V52.294a2.655,2.655,0,0,0,.431-0.412,3.913,3.913,0,0,0,.315-0.439A2.883,2.883,0,0,0,52.716,51q0.1-.238.171-0.431,0.092-.23.162-0.418a2.711,2.711,0,0,1,.162-0.355,2.074,2.074,0,0,1,.211-0.314,1.05,1.05,0,0,1,.291-0.246q0.079,0.136.168,0.269a1.22,1.22,0,0,0,.2.233,0.824,0.824,0,0,0,.26.157,0.98,0.98,0,0,0,.352.058,0.7,0.7,0,0,0,.294-0.05,0.655,0.655,0,0,0,.19-0.139,0.489,0.489,0,0,0,.113-0.183,0.655,0.655,0,0,0,.04-0.225,0.568,0.568,0,0,0-.061-0.261,0.589,0.589,0,0,0-.184-0.209,1.013,1.013,0,0,0-.331-0.154,1.712,1.712,0,0,0-.459-0.055,2.01,2.01,0,0,0-.7.12,1.789,1.789,0,0,0-.563.329,2.242,2.242,0,0,0-.538.685q-0.183.371-.354,0.8-0.183.47-.342,0.8a1.723,1.723,0,0,1-.422.562,1.322,1.322,0,0,1-.4.246,1.228,1.228,0,0,1-.444.084h-0.57v-2.54a0.7,0.7,0,0,1,.073-0.319,0.433,0.433,0,0,1,.282-0.209,3.343,3.343,0,0,1,.38-0.078,3.42,3.42,0,0,1,.428-0.047V48.747H47.514v0.371a2.48,2.48,0,0,1,.4.063,2.562,2.562,0,0,1,.392.12,0.519,0.519,0,0,1,.279.214,0.641,0.641,0,0,1,.07.308v5.351a0.6,0.6,0,0,1-.083.321,0.506,0.506,0,0,1-.266.2,1.529,1.529,0,0,1-.38.063l-0.41.031v0.371h3.605V55.791a2.8,2.8,0,0,1-.444-0.057,2.708,2.708,0,0,1-.364-0.089,0.54,0.54,0,0,1-.278-0.22,0.619,0.619,0,0,1-.077-0.309V52.739H50.4a2.019,2.019,0,0,1,1.128.277,2.831,2.831,0,0,1,.83,1.068q0.252,0.471.491,0.971t0.491,1.107h2.391V55.791Zm6.158-6.945a4.869,4.869,0,0,0-3.223-.005,4.019,4.019,0,0,0-1.337.784,3.656,3.656,0,0,0-1.243,2.838,3.837,3.837,0,0,0,.315,1.549,3.6,3.6,0,0,0,.866,1.231,3.929,3.929,0,0,0,1.319.807,4.923,4.923,0,0,0,3.278.018,4.065,4.065,0,0,0,1.322-.773,3.56,3.56,0,0,0,.918-1.228,3.805,3.805,0,0,0,.331-1.6,3.871,3.871,0,0,0-.324-1.6,3.611,3.611,0,0,0-.9-1.236A3.971,3.971,0,0,0,61.892,48.846Zm-0.447,6.767a2.62,2.62,0,0,1-1.181.261,2.59,2.59,0,0,1-1.2-.259,2.321,2.321,0,0,1-.832-0.719,3.175,3.175,0,0,1-.5-1.077,5.35,5.35,0,0,1-.159-1.359,5.461,5.461,0,0,1,.15-1.3,3.355,3.355,0,0,1,.456-1.077,2.422,2.422,0,0,1,.839-0.768,2.525,2.525,0,0,1,1.249-.287,2.618,2.618,0,0,1,1.163.248,2.326,2.326,0,0,1,.845.692,3.2,3.2,0,0,1,.511,1.087,5.779,5.779,0,0,1,.018,2.744,3.2,3.2,0,0,1-.5,1.076A2.253,2.253,0,0,1,61.445,55.613Z"/>
  <path id="ЮЖНО-САХАЛИНСКИЙ" class="cls-2" d="M29.065,93.719a5.585,5.585,0,0,0,4.576,2.025,5.466,5.466,0,0,0,4.6-2.234A8.708,8.708,0,0,0,39.936,88.1a7.927,7.927,0,0,0-1.789-5.436,5.831,5.831,0,0,0-4.581-2.03A5.617,5.617,0,0,0,29.4,82.316a7.686,7.686,0,0,0-2.062,4.447H24.757V80.855H22.115V95.518h2.643V88.912h2.578A7.7,7.7,0,0,0,29.065,93.719Zm7.015-9.625a6.641,6.641,0,0,1,.988,3.969,7.6,7.6,0,0,1-.945,4.007,2.89,2.89,0,0,1-2.567,1.547,2.982,2.982,0,0,1-2.471-1.38,6.693,6.693,0,0,1-1.01-3.991A7.517,7.517,0,0,1,31,84.266a2.881,2.881,0,0,1,2.573-1.509A3,3,0,0,1,36.079,84.094Zm22.1-3.239h-2.6L51.494,87l-0.548.15V80.855H48.433V87.15L47.885,87,43.8,80.855H40.9l4.684,7.025-5.07,7.638h2.6l4.458-6.886,0.859,0.258v6.628h2.514V88.89l0.849-.258,4.469,6.886h2.954L53.8,87.15Zm12.837,0H68.37v6.026h-5.6V80.855H60.131V95.518h2.643v-6.37h5.6v6.37h2.642V80.855Zm13.2,12.8a8.338,8.338,0,0,0,1.724-5.484,8.565,8.565,0,0,0-1.66-5.387,5.4,5.4,0,0,0-4.517-2.154,5.567,5.567,0,0,0-4.565,2.154,8.279,8.279,0,0,0-1.73,5.355,8.827,8.827,0,0,0,1.627,5.414,5.342,5.342,0,0,0,4.549,2.191A5.63,5.63,0,0,0,84.21,93.655Zm-7.025-1.407a7.606,7.606,0,0,1-.865-4.023q0-5.468,3.395-5.468a2.718,2.718,0,0,1,2.535,1.434,8.043,8.043,0,0,1,.816,3.959q0,3.1-.988,4.286a3.039,3.039,0,0,1-2.417,1.182A2.761,2.761,0,0,1,77.184,92.247Zm9.545-3.314v2.009h5.392V88.933H86.729Zm14.233,3.674a2.556,2.556,0,0,1-1.976.913,2.672,2.672,0,0,1-2.331-1.359,7.458,7.458,0,0,1-.881-4.023,7.917,7.917,0,0,1,.822-4,2.557,2.557,0,0,1,2.3-1.38q2.309,0,2.986,3.319l2.449-.258a6.33,6.33,0,0,0-1.826-3.846,5.592,5.592,0,0,0-8,.757,8.791,8.791,0,0,0-1.59,5.452,10.379,10.379,0,0,0,.677,3.814,6.446,6.446,0,0,0,1.928,2.739,5.03,5.03,0,0,0,3.26,1.01,5.3,5.3,0,0,0,3.852-1.423,5.731,5.731,0,0,0,1.7-3.626l-2.449-.269A3.647,3.647,0,0,1,100.962,92.607Zm12.053-11.752H109.76l-4.866,14.663h2.256l1.149-3.491h5.64l1.171,3.491h2.825Zm-4.061,9.056,2.138-6.542,2.138,6.542h-4.276ZM125.9,87.548l4.082-6.692h-2.471l-2.868,4.877-2.707-4.877h-3.072l3.985,7.025L118.2,95.518h2.46l3.438-5.779,3.244,5.779h3.083Zm12.847-6.692h-3.254l-4.867,14.663h2.256l1.15-3.491h5.639l1.171,3.491h2.825Zm-4.06,9.056,2.138-6.542,2.137,6.542h-4.275Zm14.738-6.6h0.151l3.706,12.2h2.836l-4.63-14.663h-3.352L143.48,95.518h2.3Zm14.943,4.834a22.275,22.275,0,0,0,1.74-2.911q-0.065.709-.065,2.686v7.595h2.632V80.855h-2.632v1.482l-4.318,6.037a19.253,19.253,0,0,0-1.73,2.922q0.075-1.214.076-2.213V80.855h-2.643V95.518h2.643V94.186Zm18.422-7.294h-2.642v6.026h-5.6V80.855H171.9V95.518h2.642v-6.37h5.6v6.37h2.642V80.855Zm10.5,11.752a2.559,2.559,0,0,1-1.977.913,2.671,2.671,0,0,1-2.331-1.359,7.461,7.461,0,0,1-.881-4.023,7.916,7.916,0,0,1,.822-4,2.557,2.557,0,0,1,2.3-1.38q2.31,0,2.986,3.319l2.45-.258a6.331,6.331,0,0,0-1.827-3.846,5.592,5.592,0,0,0-8,.757,8.8,8.8,0,0,0-1.589,5.452,10.383,10.383,0,0,0,.676,3.814,6.448,6.448,0,0,0,1.929,2.739,5.03,5.03,0,0,0,3.26,1.01,5.294,5.294,0,0,0,3.851-1.423,5.737,5.737,0,0,0,1.7-3.626l-2.45-.269A3.64,3.64,0,0,1,193.281,92.607Zm12.9-6.929,3.48-4.823h-2.674l-4.867,6.617q-0.225.3-.73,1.085v-7.7h-2.643V95.518h2.643V91.812l2.836-3.76,3.094,7.466h2.954Zm13.009,2.471a22.275,22.275,0,0,0,1.74-2.911q-0.065.709-.065,2.686v7.595H223.5V80.855h-2.632v1.482l-4.318,6.037a19.163,19.163,0,0,0-1.729,2.922q0.075-1.214.075-2.213V80.855h-2.643V95.518h2.643V94.186Zm14.48,0a22.056,22.056,0,0,0,1.74-2.911q-0.065.709-.064,2.686v7.595h2.632V80.855h-2.632v1.482l-4.318,6.037A19.17,19.17,0,0,0,229.3,91.3q0.075-1.214.075-2.213V80.855h-2.642V95.518h2.642V94.186Zm-3.523-9.475a3.306,3.306,0,0,0,2.288.806,3.245,3.245,0,0,0,2.342-.854,2.973,2.973,0,0,0,.945-2.089h-1.407a1.582,1.582,0,0,1-1.826,1.418,1.614,1.614,0,0,1-1.88-1.418H229.2A2.858,2.858,0,0,0,230.148,78.675Z"/>
  <path id="КАМЕРНЫЙ_ОРКЕСТР" data-name="КАМЕРНЫЙ ОРКЕСТР" class="cls-3" d="M29.442,120.845l3.481-4.823H30.248l-4.866,6.617q-0.226.3-.73,1.085v-7.7H22.009v14.663h2.643v-3.706l2.836-3.76,3.094,7.466h2.954ZM42.1,116.022H38.842l-4.866,14.663h2.256l1.149-3.491h5.64l1.171,3.491h2.825Zm-4.061,9.055,2.138-6.542,2.138,6.542H38.036Zm25.126-9.055H59l-3.019,9.442-3.072-9.442H48.778v14.663h2.159V117.848l4.082,12.837h1.386l4.061-12.837v12.837h2.7V116.022Zm12.762,12.386H69.038v-4.1h5.457v-2.127H69.038V118.2h6.789v-2.18H66.4v14.663h9.528v-2.277Zm4.92-3.535h3.663a4.809,4.809,0,0,0,3.405-1.246,4.5,4.5,0,0,0,.1-6.311,5.052,5.052,0,0,0-3.808-1.294h-6v14.663h2.643v-5.812Zm0-6.66h2.89a2.87,2.87,0,0,1,2.154.645,2.2,2.2,0,0,1,.6,1.547,2.084,2.084,0,0,1-.645,1.6,2.642,2.642,0,0,1-1.869.6H80.844v-4.394Zm21.42-2.191H99.621v6.026h-5.6v-6.026H91.382v14.663h2.643v-6.37h5.6v6.37h2.642V116.022Zm18.509,14.663V116.022H118.13v14.663h2.642Zm-9.474,0a5,5,0,0,0,3.8-1.3,4.591,4.591,0,0,0,1.23-3.287,4.89,4.89,0,0,0-.671-2.567,3.373,3.373,0,0,0-1.762-1.51,9.788,9.788,0,0,0-3.153-.392h-2.46v-5.607h-2.643v14.663H111.3Zm-3.019-6.907h2.815q2.523,0,2.524,2.32t-2.524,2.31h-2.815v-4.63Zm22.8-.462a22.107,22.107,0,0,0,1.74-2.911q-0.065.708-.064,2.685v7.595h2.632V116.022H132.75V117.5l-4.319,6.037a19.29,19.29,0,0,0-1.729,2.922q0.075-1.213.075-2.213v-8.228h-2.642v14.663h2.642v-1.332Zm-3.523-9.475a3.306,3.306,0,0,0,2.288.806,3.244,3.244,0,0,0,2.341-.854,2.972,2.972,0,0,0,.946-2.09h-1.407a1.582,1.582,0,0,1-1.827,1.418,1.614,1.614,0,0,1-1.88-1.418h-1.407A2.857,2.857,0,0,0,127.551,113.841Zm26.538,14.98a8.336,8.336,0,0,0,1.724-5.484,8.568,8.568,0,0,0-1.659-5.387,5.4,5.4,0,0,0-4.518-2.154,5.567,5.567,0,0,0-4.565,2.154,8.28,8.28,0,0,0-1.729,5.355,8.828,8.828,0,0,0,1.627,5.414,5.341,5.341,0,0,0,4.549,2.191A5.629,5.629,0,0,0,154.089,128.821Zm-7.025-1.407a7.6,7.6,0,0,1-.865-4.023q0-5.468,3.395-5.468a2.719,2.719,0,0,1,2.535,1.434,8.045,8.045,0,0,1,.816,3.959q0,3.1-.988,4.286a3.04,3.04,0,0,1-2.417,1.182A2.762,2.762,0,0,1,147.064,127.414Zm13.852-2.541h3.663a4.808,4.808,0,0,0,3.405-1.246,4.5,4.5,0,0,0,.1-6.311,5.051,5.051,0,0,0-3.808-1.294h-6v14.663h2.643v-5.812Zm0-6.66h2.889a2.869,2.869,0,0,1,2.154.645,2.194,2.194,0,0,1,.6,1.547,2.083,2.083,0,0,1-.644,1.6,2.643,2.643,0,0,1-1.869.6h-3.126v-4.394Zm17.971,2.632,3.481-4.823h-2.675l-4.866,6.617q-0.225.3-.731,1.085v-7.7h-2.642v14.663H174.1v-3.706l2.836-3.76,3.094,7.466h2.954Zm15.6,7.563H187.6v-4.1h5.457v-2.127H187.6V118.2h6.789v-2.18h-9.431v14.663h9.528v-2.277Zm9.55-.634a2.556,2.556,0,0,1-1.977.913,2.672,2.672,0,0,1-2.331-1.359,7.461,7.461,0,0,1-.881-4.023,7.914,7.914,0,0,1,.822-4,2.556,2.556,0,0,1,2.3-1.381q2.31,0,2.987,3.32l2.449-.258a6.329,6.329,0,0,0-1.826-3.846,5.592,5.592,0,0,0-8,.757,8.794,8.794,0,0,0-1.59,5.452,10.379,10.379,0,0,0,.677,3.813,6.443,6.443,0,0,0,1.928,2.74,5.031,5.031,0,0,0,3.26,1.009,5.293,5.293,0,0,0,3.851-1.423,5.731,5.731,0,0,0,1.7-3.625l-2.449-.269A3.649,3.649,0,0,1,204.035,127.774Zm10.592-9.486h3.9v-2.266H207.891v2.266h3.9v12.4h2.836v-12.4Zm8.153,6.585h3.663a4.808,4.808,0,0,0,3.405-1.246,4.5,4.5,0,0,0,.1-6.311,5.051,5.051,0,0,0-3.808-1.294h-6v14.663h2.643v-5.812Zm0-6.66h2.89a2.868,2.868,0,0,1,2.153.645,2.195,2.195,0,0,1,.6,1.547,2.083,2.083,0,0,1-.645,1.6,2.643,2.643,0,0,1-1.869.6H222.78v-4.394Z"/>
</svg>
